# xmcd
#
# Track frame offsets:
#	150
#	13165
#	30814
#	60040
#	76227
#	89378
#	110722
#	126525
#	165037
#	182431
#	200192
#	222384
#	244161
#	263281
#	280340
#	296185
#	312944
#	327989
#
# Disc length: 4766 seconds
#
# Revision: 1
# Processed by: cddbd v1.5.2PL0 Copyright (c) Steve Scherf et al.
# Submitted via: audiograbber 1.83.01
#
DISCID=f8129c12
DTITLE=Various Artist - Soft Rock Ballads - CD1
DYEAR=2006
DGENRE=
TTITLE0=Queen - You're My Best Friend
TTITLE1=Steve Harley And Cockney Rebel - Make Me Smile (Come Up And See Me)
TTITLE2=Gerry Rafferty - Baker Street
TTITLE3=Steve Miller Band - Joker (The)
TTITLE4=Kinks (The) - Days
TTITLE5=Doobie Brothers - Listen To The Music
TTITLE6=Bonnie Tyler - It's A Heartache
TTITLE7=Don McLean - American Pie
TTITLE8=David Bowie - Life On Mars
TTITLE9=Chicago - If You Leave Me Now
TTITLE10=Phil Collins - If Leaving Me Is Easy
TTITLE11=Peter Frampton - Baby I Love Your Way
TTITLE12=Lindisfarne - Lady Eleanor
TTITLE13=Status Quo - Living On An Island
TTITLE14=Thin Lizzy - Sarah
TTITLE15=Paul McCartney And Wings - Another Day
TTITLE16=Beach Boys - Sail On Sailor
TTITLE17=Al Stewart - Year Of The Cat
EXTD=
EXTT0=
EXTT1=
EXTT2=
EXTT3=
EXTT4=
EXTT5=
EXTT6=
EXTT7=
EXTT8=
EXTT9=
EXTT10=
EXTT11=
EXTT12=
EXTT13=
EXTT14=
EXTT15=
EXTT16=
EXTT17=
PLAYORDER=
